<svg width="340" height="40" viewBox="0 0 340 40" fill="none" xmlns="http://www.w3.org/2000/svg">
<rect width="340" height="40" rx="15" fill="#3C2313"/>
<path d="M15.7612 24H14.9174V17.6016H15.7612V24ZM17.9496 19.2451L17.976 19.8428C18.3393 19.3857 18.8139 19.1572 19.3998 19.1572C20.4047 19.1572 20.9116 19.7241 20.9203 20.8579V24H20.1074V20.8535C20.1044 20.5107 20.0253 20.2573 19.8701 20.0933C19.7177 19.9292 19.4789 19.8472 19.1537 19.8472C18.8901 19.8472 18.6586 19.9175 18.4594 20.0581C18.2602 20.1987 18.1049 20.3833 17.9936 20.6118V24H17.1806V19.2451H17.9496ZM21.9531 21.583C21.9531 20.8418 22.1245 20.2529 22.4672 19.8164C22.81 19.377 23.2641 19.1572 23.8295 19.1572C24.4096 19.1572 24.8622 19.3623 25.1874 19.7725L25.227 19.2451H25.9697V23.8857C25.9697 24.501 25.7866 24.9858 25.4203 25.3403C25.0571 25.6948 24.5678 25.8721 23.9526 25.8721C23.6098 25.8721 23.2744 25.7988 22.9462 25.6523C22.6181 25.5059 22.3676 25.3052 22.1948 25.0503L22.6166 24.5625C22.9653 24.9932 23.3915 25.2085 23.8954 25.2085C24.291 25.2085 24.5986 25.0972 24.8183 24.8745C25.041 24.6519 25.1523 24.3384 25.1523 23.9341V23.5254C24.8271 23.9004 24.3832 24.0879 23.8207 24.0879C23.2641 24.0879 22.8129 23.8638 22.4672 23.4155C22.1245 22.9673 21.9531 22.3564 21.9531 21.583ZM22.7704 21.6753C22.7704 22.2114 22.8803 22.6333 23.1 22.9409C23.3198 23.2456 23.6274 23.3979 24.0229 23.3979C24.5356 23.3979 24.912 23.165 25.1523 22.6992V20.5283C24.9033 20.0742 24.5297 19.8472 24.0317 19.8472C23.6362 19.8472 23.3271 20.001 23.1044 20.3086C22.8818 20.6162 22.7704 21.0718 22.7704 21.6753ZM29.4985 19.9746C29.3754 19.9541 29.2421 19.9438 29.0986 19.9438C28.5654 19.9438 28.2036 20.1709 28.0131 20.625V24H27.2001V19.2451H27.9911L28.0043 19.7944C28.2709 19.3696 28.6489 19.1572 29.1381 19.1572C29.2963 19.1572 29.4164 19.1777 29.4985 19.2188V19.9746ZM32.1352 24.0879C31.4907 24.0879 30.9662 23.877 30.562 23.4551C30.1577 23.0303 29.9555 22.4634 29.9555 21.7544V21.605C29.9555 21.1333 30.0449 20.7129 30.2236 20.3438C30.4052 19.9717 30.6572 19.6816 30.9794 19.4736C31.3046 19.2627 31.6562 19.1572 32.0341 19.1572C32.6523 19.1572 33.1328 19.3608 33.4755 19.7681C33.8183 20.1753 33.9897 20.7583 33.9897 21.5171V21.8555H30.7685C30.7802 22.3242 30.9164 22.7036 31.1772 22.9937C31.4409 23.2808 31.7748 23.4243 32.1791 23.4243C32.4662 23.4243 32.7094 23.3657 32.9086 23.2485C33.1078 23.1313 33.2822 22.9761 33.4316 22.7827L33.9282 23.1694C33.5297 23.7817 32.9321 24.0879 32.1352 24.0879ZM32.0341 19.8252C31.706 19.8252 31.4306 19.9453 31.2079 20.1855C30.9853 20.4229 30.8476 20.7568 30.7949 21.1875H33.1767V21.126C33.1533 20.7129 33.0419 20.3936 32.8427 20.168C32.6435 19.9395 32.374 19.8252 32.0341 19.8252ZM37.7031 22.7388C37.7031 22.519 37.6196 22.3491 37.4526 22.229C37.2885 22.106 36.9999 22.0005 36.5869 21.9126C36.1767 21.8247 35.85 21.7192 35.6069 21.5962C35.3666 21.4731 35.1879 21.3267 35.0707 21.1567C34.9565 20.9868 34.8994 20.7847 34.8994 20.5503C34.8994 20.1606 35.0634 19.8311 35.3915 19.5615C35.7226 19.292 36.1445 19.1572 36.6572 19.1572C37.1962 19.1572 37.6328 19.2964 37.9667 19.5747C38.3036 19.853 38.4721 20.209 38.4721 20.6426H37.6547C37.6547 20.4199 37.5595 20.228 37.3691 20.0669C37.1816 19.9058 36.9443 19.8252 36.6572 19.8252C36.3613 19.8252 36.1298 19.8896 35.9628 20.0186C35.7958 20.1475 35.7123 20.3159 35.7123 20.5239C35.7123 20.7202 35.79 20.8682 35.9453 20.9678C36.1005 21.0674 36.3803 21.1626 36.7846 21.2534C37.1918 21.3442 37.5214 21.4526 37.7734 21.5786C38.0253 21.7046 38.2114 21.8569 38.3315 22.0356C38.4545 22.2114 38.5161 22.4268 38.5161 22.6816C38.5161 23.1064 38.3461 23.4478 38.0063 23.7056C37.6664 23.9604 37.2255 24.0879 36.6835 24.0879C36.3027 24.0879 35.9658 24.0205 35.6728 23.8857C35.3798 23.751 35.1498 23.5635 34.9828 23.3232C34.8188 23.0801 34.7368 22.8179 34.7368 22.5366H35.5497C35.5644 22.8091 35.6728 23.0259 35.8749 23.187C36.08 23.3452 36.3495 23.4243 36.6835 23.4243C36.9911 23.4243 37.2372 23.3628 37.4218 23.2397C37.6093 23.1138 37.7031 22.9468 37.7031 22.7388ZM42.5107 24C42.4638 23.9062 42.4257 23.7393 42.3964 23.499C42.0185 23.8916 41.5673 24.0879 41.0429 24.0879C40.5742 24.0879 40.1889 23.9561 39.8871 23.6924C39.5883 23.4258 39.4389 23.0889 39.4389 22.6816C39.4389 22.1865 39.6264 21.8027 40.0014 21.5303C40.3793 21.2549 40.9096 21.1172 41.5922 21.1172H42.3832V20.7437C42.3832 20.4595 42.2983 20.2339 42.1284 20.0669C41.9584 19.897 41.7079 19.812 41.3769 19.812C41.0869 19.812 40.8437 19.8853 40.6474 20.0317C40.4511 20.1782 40.353 20.3555 40.353 20.5635H39.5356C39.5356 20.3262 39.6191 20.0977 39.7861 19.8779C39.956 19.6553 40.1845 19.4795 40.4716 19.3506C40.7617 19.2217 41.0795 19.1572 41.4252 19.1572C41.9731 19.1572 42.4023 19.2949 42.7128 19.5703C43.0234 19.8428 43.1845 20.2192 43.1962 20.6997V22.8882C43.1962 23.3247 43.2519 23.6719 43.3632 23.9297V24H42.5107ZM41.1616 23.3804C41.4164 23.3804 41.6581 23.3145 41.8867 23.1826C42.1152 23.0508 42.2807 22.8794 42.3832 22.6685V21.6929H41.746C40.7499 21.6929 40.2519 21.9844 40.2519 22.5674C40.2519 22.8223 40.3369 23.0215 40.5068 23.165C40.6767 23.3086 40.895 23.3804 41.1616 23.3804ZM41.913 17.25H42.8974L41.7197 18.542H41.0649L41.913 17.25ZM47.8061 18.0938V19.2451H48.6938V19.8735H47.8061V22.8223C47.8061 23.0127 47.8456 23.1562 47.9247 23.2529C48.0038 23.3467 48.1386 23.3936 48.329 23.3936C48.4228 23.3936 48.5517 23.376 48.7158 23.3408V24C48.5019 24.0586 48.2939 24.0879 48.0917 24.0879C47.7285 24.0879 47.4545 23.978 47.27 23.7583C47.0854 23.5386 46.9931 23.2266 46.9931 22.8223V19.8735H46.1274V19.2451H46.9931V18.0938H47.8061ZM52.5829 23.5298C52.2665 23.9019 51.8022 24.0879 51.1899 24.0879C50.683 24.0879 50.2963 23.9414 50.0297 23.6484C49.7661 23.3525 49.6328 22.916 49.6298 22.3389V19.2451H50.4428V22.3169C50.4428 23.0376 50.7358 23.3979 51.3217 23.3979C51.9428 23.3979 52.3559 23.1665 52.561 22.7036V19.2451H53.374V24H52.6005L52.5829 23.5298ZM58.7529 23.4243C59.0429 23.4243 59.2963 23.3364 59.5131 23.1606C59.7299 22.9849 59.85 22.7651 59.8735 22.5015H60.6425C60.6279 22.7739 60.5341 23.0332 60.3613 23.2793C60.1884 23.5254 59.957 23.7217 59.6669 23.8682C59.3798 24.0146 59.0751 24.0879 58.7529 24.0879C58.1054 24.0879 57.5898 23.8726 57.206 23.4419C56.8251 23.0083 56.6347 22.4165 56.6347 21.6665V21.5303C56.6347 21.0674 56.7197 20.6558 56.8896 20.2954C57.0595 19.9351 57.3027 19.6553 57.6191 19.4561C57.9384 19.2568 58.3149 19.1572 58.7485 19.1572C59.2817 19.1572 59.7241 19.3169 60.0756 19.6362C60.4301 19.9556 60.6191 20.3701 60.6425 20.8799H59.8735C59.85 20.5723 59.7328 20.3203 59.5219 20.124C59.3139 19.9248 59.0561 19.8252 58.7485 19.8252C58.3354 19.8252 58.0146 19.9746 57.7861 20.2734C57.5605 20.5693 57.4477 20.9985 57.4477 21.561V21.7148C57.4477 22.2627 57.5605 22.6846 57.7861 22.9805C58.0117 23.2764 58.3339 23.4243 58.7529 23.4243ZM61.3412 21.5786C61.3412 21.1128 61.4321 20.6938 61.6137 20.3218C61.7983 19.9497 62.0532 19.6626 62.3784 19.4604C62.7065 19.2583 63.08 19.1572 63.499 19.1572C64.1464 19.1572 64.6694 19.3813 65.0678 19.8296C65.4692 20.2778 65.6699 20.874 65.6699 21.6182V21.6753C65.6699 22.1382 65.5805 22.5542 65.4018 22.9233C65.226 23.2896 64.9726 23.5752 64.6415 23.7803C64.3134 23.9854 63.9355 24.0879 63.5078 24.0879C62.8632 24.0879 62.3403 23.8638 61.9389 23.4155C61.5405 22.9673 61.3412 22.374 61.3412 21.6357V21.5786ZM62.1586 21.6753C62.1586 22.2026 62.2802 22.626 62.5234 22.9453C62.7695 23.2646 63.0976 23.4243 63.5078 23.4243C63.9208 23.4243 64.249 23.2632 64.4921 22.9409C64.7353 22.6157 64.8569 22.1616 64.8569 21.5786C64.8569 21.0571 64.7324 20.6353 64.4833 20.313C64.2372 19.9878 63.9091 19.8252 63.499 19.8252C63.0976 19.8252 62.7739 19.9849 62.5278 20.3042C62.2817 20.6235 62.1586 21.0806 62.1586 21.6753ZM68.9877 19.9746C68.8647 19.9541 68.7314 19.9438 68.5878 19.9438C68.0546 19.9438 67.6928 20.1709 67.5024 20.625V24H66.6894V19.2451H67.4804L67.4936 19.7944C67.7602 19.3696 68.1381 19.1572 68.6274 19.1572C68.7856 19.1572 68.9057 19.1777 68.9877 19.2188V19.9746ZM72.0375 19.9746C71.9145 19.9541 71.7812 19.9438 71.6376 19.9438C71.1044 19.9438 70.7426 20.1709 70.5522 20.625V24H69.7392V19.2451H70.5302L70.5434 19.7944C70.81 19.3696 71.1879 19.1572 71.6772 19.1572C71.8354 19.1572 71.9555 19.1777 72.0375 19.2188V19.9746ZM74.6743 24.0879C74.0297 24.0879 73.5053 23.877 73.101 23.4551C72.6967 23.0303 72.4946 22.4634 72.4946 21.7544V21.605C72.4946 21.1333 72.5839 20.7129 72.7626 20.3438C72.9443 19.9717 73.1962 19.6816 73.5185 19.4736C73.8437 19.2627 74.1953 19.1572 74.5732 19.1572C75.1913 19.1572 75.6718 19.3608 76.0146 19.7681C76.3574 20.1753 76.5287 20.7583 76.5287 21.5171V21.8555H73.3076C73.3193 22.3242 73.4555 22.7036 73.7162 22.9937C73.9799 23.2808 74.3139 23.4243 74.7182 23.4243C75.0053 23.4243 75.2485 23.3657 75.4477 23.2485C75.6469 23.1313 75.8212 22.9761 75.9706 22.7827L76.4672 23.1694C76.0688 23.7817 75.4711 24.0879 74.6743 24.0879ZM74.5732 19.8252C74.2451 19.8252 73.9697 19.9453 73.747 20.1855C73.5244 20.4229 73.3867 20.7568 73.3339 21.1875H75.7158V21.126C75.6923 20.7129 75.581 20.3936 75.3818 20.168C75.1826 19.9395 74.913 19.8252 74.5732 19.8252ZM77.2582 21.5786C77.2582 21.1128 77.3491 20.6938 77.5307 20.3218C77.7153 19.9497 77.9702 19.6626 78.2953 19.4604C78.6235 19.2583 78.997 19.1572 79.416 19.1572C80.0634 19.1572 80.5864 19.3813 80.9848 19.8296C81.3862 20.2778 81.5869 20.874 81.5869 21.6182V21.6753C81.5869 22.1382 81.4975 22.5542 81.3188 22.9233C81.143 23.2896 80.8896 23.5752 80.5585 23.7803C80.2304 23.9854 79.8525 24.0879 79.4247 24.0879C78.7802 24.0879 78.2573 23.8638 77.8559 23.4155C77.4575 22.9673 77.2582 22.374 77.2582 21.6357V21.5786ZM78.0756 21.6753C78.0756 22.2026 78.1972 22.626 78.4404 22.9453C78.6865 23.2646 79.0146 23.4243 79.4247 23.4243C79.8378 23.4243 80.166 23.2632 80.4091 22.9409C80.6523 22.6157 80.7739 22.1616 80.7739 21.5786C80.7739 21.0571 80.6494 20.6353 80.4003 20.313C80.1542 19.9878 79.8261 19.8252 79.416 19.8252C79.0146 19.8252 78.6909 19.9849 78.4448 20.3042C78.1987 20.6235 78.0756 21.0806 78.0756 21.6753ZM86.812 24.0879C86.1674 24.0879 85.643 23.877 85.2387 23.4551C84.8344 23.0303 84.6323 22.4634 84.6323 21.7544V21.605C84.6323 21.1333 84.7216 20.7129 84.9003 20.3438C85.082 19.9717 85.3339 19.6816 85.6562 19.4736C85.9814 19.2627 86.3329 19.1572 86.7109 19.1572C87.329 19.1572 87.8095 19.3608 88.1523 19.7681C88.4951 20.1753 88.6664 20.7583 88.6664 21.5171V21.8555H85.4453C85.457 22.3242 85.5932 22.7036 85.8539 22.9937C86.1176 23.2808 86.4516 23.4243 86.8559 23.4243C87.143 23.4243 87.3862 23.3657 87.5854 23.2485C87.7846 23.1313 87.9589 22.9761 88.1083 22.7827L88.6049 23.1694C88.2065 23.7817 87.6088 24.0879 86.812 24.0879ZM86.7109 19.8252C86.3828 19.8252 86.1074 19.9453 85.8847 20.1855C85.662 20.4229 85.5244 20.7568 85.4716 21.1875H87.8535V21.126C87.83 20.7129 87.7187 20.3936 87.5195 20.168C87.3203 19.9395 87.0507 19.8252 86.7109 19.8252ZM90.4946 24H89.6816V17.25H90.4946V24ZM93.7729 24.0879C93.1284 24.0879 92.6039 23.877 92.1996 23.4551C91.7953 23.0303 91.5932 22.4634 91.5932 21.7544V21.605C91.5932 21.1333 91.6826 20.7129 91.8613 20.3438C92.0429 19.9717 92.2949 19.6816 92.6171 19.4736C92.9423 19.2627 93.2939 19.1572 93.6718 19.1572C94.29 19.1572 94.7704 19.3608 95.1132 19.7681C95.456 20.1753 95.6274 20.7583 95.6274 21.5171V21.8555H92.4062C92.4179 22.3242 92.5541 22.7036 92.8149 22.9937C93.0786 23.2808 93.4125 23.4243 93.8168 23.4243C94.1039 23.4243 94.3471 23.3657 94.5463 23.2485C94.7455 23.1313 94.9199 22.9761 95.0693 22.7827L95.5659 23.1694C95.1674 23.7817 94.5698 24.0879 93.7729 24.0879ZM93.6718 19.8252C93.3437 19.8252 93.0683 19.9453 92.8456 20.1855C92.623 20.4229 92.4853 20.7568 92.4326 21.1875H94.8144V21.126C94.791 20.7129 94.6796 20.3936 94.4804 20.168C94.2812 19.9395 94.0117 19.8252 93.6718 19.8252ZM98.4794 23.4243C98.7695 23.4243 99.0229 23.3364 99.2397 23.1606C99.4565 22.9849 99.5766 22.7651 99.6 22.5015H100.369C100.354 22.7739 100.261 23.0332 100.088 23.2793C99.915 23.5254 99.6835 23.7217 99.3935 23.8682C99.1064 24.0146 98.8017 24.0879 98.4794 24.0879C97.832 24.0879 97.3163 23.8726 96.9326 23.4419C96.5517 23.0083 96.3613 22.4165 96.3613 21.6665V21.5303C96.3613 21.0674 96.4462 20.6558 96.6161 20.2954C96.7861 19.9351 97.0292 19.6553 97.3456 19.4561C97.665 19.2568 98.0414 19.1572 98.475 19.1572C99.0082 19.1572 99.4506 19.3169 99.8022 19.6362C100.157 19.9556 100.346 20.3701 100.369 20.8799H99.6C99.5766 20.5723 99.4594 20.3203 99.2485 20.124C99.0405 19.9248 98.7827 19.8252 98.475 19.8252C98.062 19.8252 97.7411 19.9746 97.5126 20.2734C97.287 20.5693 97.1743 20.9985 97.1743 21.561V21.7148C97.1743 22.2627 97.287 22.6846 97.5126 22.9805C97.7382 23.2764 98.0605 23.4243 98.4794 23.4243ZM102.386 18.0938V19.2451H103.274V19.8735H102.386V22.8223C102.386 23.0127 102.426 23.1562 102.505 23.2529C102.584 23.3467 102.719 23.3936 102.909 23.3936C103.003 23.3936 103.132 23.376 103.296 23.3408V24C103.082 24.0586 102.874 24.0879 102.672 24.0879C102.309 24.0879 102.035 23.978 101.85 23.7583C101.665 23.5386 101.573 23.2266 101.573 22.8223V19.8735H100.707V19.2451H101.573V18.0938H102.386ZM106.526 19.9746C106.403 19.9541 106.269 19.9438 106.126 19.9438C105.593 19.9438 105.231 20.1709 105.04 20.625V24H104.227V19.2451H105.018L105.032 19.7944C105.298 19.3696 105.676 19.1572 106.165 19.1572C106.324 19.1572 106.444 19.1777 106.526 19.2188V19.9746ZM106.974 21.5786C106.974 21.1128 107.065 20.6938 107.247 20.3218C107.431 19.9497 107.686 19.6626 108.011 19.4604C108.339 19.2583 108.713 19.1572 109.132 19.1572C109.779 19.1572 110.302 19.3813 110.701 19.8296C111.102 20.2778 111.303 20.874 111.303 21.6182V21.6753C111.303 22.1382 111.213 22.5542 111.035 22.9233C110.859 23.2896 110.605 23.5752 110.274 23.7803C109.946 23.9854 109.568 24.0879 109.141 24.0879C108.496 24.0879 107.973 23.8638 107.572 23.4155C107.173 22.9673 106.974 22.374 106.974 21.6357V21.5786ZM107.791 21.6753C107.791 22.2026 107.913 22.626 108.156 22.9453C108.402 23.2646 108.73 23.4243 109.141 23.4243C109.554 23.4243 109.882 23.2632 110.125 22.9409C110.368 22.6157 110.49 22.1616 110.49 21.5786C110.49 21.0571 110.365 20.6353 110.116 20.313C109.87 19.9878 109.542 19.8252 109.132 19.8252C108.73 19.8252 108.407 19.9849 108.161 20.3042C107.914 20.6235 107.791 21.0806 107.791 21.6753ZM109.501 17.25H110.485L109.308 18.542H108.653L109.501 17.25ZM113.091 19.2451L113.118 19.8428C113.481 19.3857 113.956 19.1572 114.541 19.1572C115.546 19.1572 116.053 19.7241 116.062 20.8579V24H115.249V20.8535C115.246 20.5107 115.167 20.2573 115.012 20.0933C114.859 19.9292 114.621 19.8472 114.295 19.8472C114.032 19.8472 113.8 19.9175 113.601 20.0581C113.402 20.1987 113.247 20.3833 113.135 20.6118V24H112.322V19.2451H113.091ZM118.171 24H117.358V19.2451H118.171V24ZM117.292 17.9839C117.292 17.8521 117.332 17.7407 117.411 17.6499C117.493 17.5591 117.613 17.5137 117.771 17.5137C117.93 17.5137 118.05 17.5591 118.132 17.6499C118.214 17.7407 118.255 17.8521 118.255 17.9839C118.255 18.1157 118.214 18.2256 118.132 18.3135C118.05 18.4014 117.93 18.4453 117.771 18.4453C117.613 18.4453 117.493 18.4014 117.411 18.3135C117.332 18.2256 117.292 18.1157 117.292 17.9839ZM121.384 23.4243C121.674 23.4243 121.927 23.3364 122.144 23.1606C122.361 22.9849 122.481 22.7651 122.504 22.5015H123.273C123.259 22.7739 123.165 23.0332 122.992 23.2793C122.819 23.5254 122.588 23.7217 122.298 23.8682C122.011 24.0146 121.706 24.0879 121.384 24.0879C120.736 24.0879 120.221 23.8726 119.837 23.4419C119.456 23.0083 119.266 22.4165 119.266 21.6665V21.5303C119.266 21.0674 119.351 20.6558 119.52 20.2954C119.69 19.9351 119.934 19.6553 120.25 19.4561C120.569 19.2568 120.946 19.1572 121.379 19.1572C121.913 19.1572 122.355 19.3169 122.706 19.6362C123.061 19.9556 123.25 20.3701 123.273 20.8799H122.504C122.481 20.5723 122.364 20.3203 122.153 20.124C121.945 19.9248 121.687 19.8252 121.379 19.8252C120.966 19.8252 120.645 19.9746 120.417 20.2734C120.191 20.5693 120.079 20.9985 120.079 21.561V21.7148C120.079 22.2627 120.191 22.6846 120.417 22.9805C120.643 23.2764 120.965 23.4243 121.384 23.4243ZM123.972 21.5786C123.972 21.1128 124.063 20.6938 124.245 20.3218C124.429 19.9497 124.684 19.6626 125.009 19.4604C125.337 19.2583 125.711 19.1572 126.13 19.1572C126.777 19.1572 127.3 19.3813 127.699 19.8296C128.1 20.2778 128.301 20.874 128.301 21.6182V21.6753C128.301 22.1382 128.211 22.5542 128.033 22.9233C127.857 23.2896 127.603 23.5752 127.272 23.7803C126.944 23.9854 126.566 24.0879 126.139 24.0879C125.494 24.0879 124.971 23.8638 124.57 23.4155C124.171 22.9673 123.972 22.374 123.972 21.6357V21.5786ZM124.789 21.6753C124.789 22.2026 124.911 22.626 125.154 22.9453C125.4 23.2646 125.728 23.4243 126.139 23.4243C126.552 23.4243 126.88 23.2632 127.123 22.9409C127.366 22.6157 127.488 22.1616 127.488 21.5786C127.488 21.0571 127.363 20.6353 127.114 20.313C126.868 19.9878 126.54 19.8252 126.13 19.8252C125.728 19.8252 125.405 19.9849 125.159 20.3042C124.913 20.6235 124.789 21.0806 124.789 21.6753Z" fill="white"/>
</svg>
