<svg width="110" height="34" viewBox="0 0 110 34" fill="none" xmlns="http://www.w3.org/2000/svg">
<rect width="110" height="34" rx="15" fill="#F0A83E"/>
<path d="M39.75 17.7422H34.8203V21.7734H40.5469V23H33.3203V11.625H40.4688V12.8594H34.8203V16.5156H39.75V17.7422ZM43.5547 14.5469L43.6016 15.6094C44.2474 14.7969 45.0911 14.3906 46.1328 14.3906C47.9193 14.3906 48.8203 15.3984 48.8359 17.4141V23H47.3906V17.4062C47.3854 16.7969 47.2448 16.3464 46.9688 16.0547C46.6979 15.763 46.2734 15.6172 45.6953 15.6172C45.2266 15.6172 44.8151 15.7422 44.4609 15.9922C44.1068 16.2422 43.8307 16.5703 43.6328 16.9766V23H42.1875V14.5469H43.5547ZM53.8047 21.0391L55.8984 14.5469H57.375L54.3438 23H53.2422L50.1797 14.5469H51.6562L53.8047 21.0391ZM60.3359 23H58.8906V14.5469H60.3359V23ZM58.7734 12.3047C58.7734 12.0703 58.8438 11.8724 58.9844 11.7109C59.1302 11.5495 59.3438 11.4688 59.625 11.4688C59.9062 11.4688 60.1198 11.5495 60.2656 11.7109C60.4115 11.8724 60.4844 12.0703 60.4844 12.3047C60.4844 12.5391 60.4115 12.7344 60.2656 12.8906C60.1198 13.0469 59.9062 13.125 59.625 13.125C59.3438 13.125 59.1302 13.0469 58.9844 12.8906C58.8438 12.7344 58.7734 12.5391 58.7734 12.3047ZM67.875 23C67.7917 22.8333 67.724 22.5365 67.6719 22.1094C67 22.8073 66.1979 23.1562 65.2656 23.1562C64.4323 23.1562 63.7474 22.9219 63.2109 22.4531C62.6797 21.9792 62.4141 21.3802 62.4141 20.6562C62.4141 19.776 62.7474 19.0938 63.4141 18.6094C64.0859 18.1198 65.0286 17.875 66.2422 17.875H67.6484V17.2109C67.6484 16.7057 67.4974 16.3047 67.1953 16.0078C66.8932 15.7057 66.4479 15.5547 65.8594 15.5547C65.3438 15.5547 64.9115 15.6849 64.5625 15.9453C64.2135 16.2057 64.0391 16.5208 64.0391 16.8906H62.5859C62.5859 16.4688 62.7344 16.0625 63.0312 15.6719C63.3333 15.276 63.7396 14.9635 64.25 14.7344C64.7656 14.5052 65.3307 14.3906 65.9453 14.3906C66.9193 14.3906 67.6823 14.6354 68.2344 15.125C68.7865 15.6094 69.0729 16.2786 69.0938 17.1328V21.0234C69.0938 21.7995 69.1927 22.4167 69.3906 22.875V23H67.875ZM65.4766 21.8984C65.9297 21.8984 66.3594 21.7812 66.7656 21.5469C67.1719 21.3125 67.4661 21.0078 67.6484 20.6328V18.8984H66.5156C64.7448 18.8984 63.8594 19.4167 63.8594 20.4531C63.8594 20.9062 64.0104 21.2604 64.3125 21.5156C64.6146 21.7708 65.0026 21.8984 65.4766 21.8984ZM75.4453 15.8438C75.2266 15.8073 74.9896 15.7891 74.7344 15.7891C73.7865 15.7891 73.1432 16.1927 72.8047 17V23H71.3594V14.5469H72.7656L72.7891 15.5234C73.263 14.7682 73.9349 14.3906 74.8047 14.3906C75.0859 14.3906 75.2995 14.4271 75.4453 14.5V15.8438Z" fill="white"/>
</svg>
