<svg width="340" height="40" viewBox="0 0 340 40" fill="none" xmlns="http://www.w3.org/2000/svg">
<rect width="340" height="40" rx="15" fill="#3C2313"/>
<path d="M261.776 22.3213C261.776 22.0723 261.688 21.8818 261.512 21.75C261.336 21.6152 261.02 21.4746 260.563 21.3281C260.106 21.1787 259.744 21.0322 259.478 20.8887C258.751 20.4961 258.388 19.9673 258.388 19.3022C258.388 18.9565 258.484 18.6489 258.678 18.3794C258.874 18.1069 259.154 17.8945 259.517 17.7422C259.883 17.5898 260.294 17.5137 260.748 17.5137C261.205 17.5137 261.612 17.5972 261.969 17.7642C262.327 17.9282 262.604 18.1611 262.8 18.4629C262.999 18.7646 263.099 19.1074 263.099 19.4912H261.78C261.78 19.1982 261.688 18.9712 261.503 18.8101C261.319 18.646 261.06 18.564 260.726 18.564C260.403 18.564 260.153 18.6328 259.974 18.7705C259.795 18.9053 259.706 19.084 259.706 19.3066C259.706 19.5146 259.81 19.689 260.018 19.8296C260.229 19.9702 260.538 20.1021 260.945 20.2251C261.695 20.4507 262.242 20.7305 262.585 21.0645C262.927 21.3984 263.099 21.8145 263.099 22.3125C263.099 22.8662 262.889 23.3013 262.47 23.6177C262.051 23.9312 261.487 24.0879 260.778 24.0879C260.286 24.0879 259.838 23.9985 259.434 23.8198C259.029 23.6382 258.72 23.3906 258.506 23.0771C258.295 22.7637 258.19 22.4004 258.19 21.9873H259.513C259.513 22.6934 259.935 23.0464 260.778 23.0464C261.092 23.0464 261.336 22.9834 261.512 22.8574C261.688 22.7285 261.776 22.5498 261.776 22.3213ZM266.759 23.5166C266.446 23.8975 266.012 24.0879 265.459 24.0879C264.949 24.0879 264.559 23.9414 264.29 23.6484C264.023 23.3555 263.887 22.9263 263.881 22.3608V19.2451H265.151V22.3169C265.151 22.812 265.377 23.0596 265.828 23.0596C266.258 23.0596 266.554 22.9102 266.715 22.6113V19.2451H267.99V24H266.794L266.759 23.5166ZM271.523 22.686C271.523 22.5308 271.445 22.4092 271.29 22.3213C271.138 22.2305 270.892 22.1499 270.552 22.0796C269.421 21.8423 268.856 21.3618 268.856 20.6382C268.856 20.2163 269.03 19.8647 269.378 19.5835C269.73 19.2993 270.189 19.1572 270.754 19.1572C271.357 19.1572 271.839 19.2993 272.2 19.5835C272.563 19.8677 272.745 20.2368 272.745 20.6909H271.475C271.475 20.5093 271.416 20.3599 271.299 20.2427C271.182 20.1226 270.999 20.0625 270.75 20.0625C270.536 20.0625 270.37 20.1108 270.253 20.2075C270.136 20.3042 270.077 20.4272 270.077 20.5767C270.077 20.7173 270.143 20.8315 270.275 20.9194C270.41 21.0044 270.635 21.0791 270.952 21.1436C271.268 21.2051 271.535 21.2754 271.752 21.3545C272.422 21.6006 272.758 22.0269 272.758 22.6333C272.758 23.0669 272.572 23.4185 272.2 23.688C271.828 23.9546 271.347 24.0879 270.758 24.0879C270.36 24.0879 270.005 24.0176 269.695 23.877C269.387 23.7334 269.146 23.5386 268.97 23.2925C268.794 23.0435 268.706 22.7754 268.706 22.4883H269.91C269.922 22.7139 270.005 22.8867 270.161 23.0068C270.316 23.127 270.524 23.187 270.785 23.187C271.028 23.187 271.211 23.1416 271.334 23.0508C271.46 22.957 271.523 22.8354 271.523 22.686ZM275.557 23.064C275.792 23.064 275.982 22.9995 276.128 22.8706C276.275 22.7417 276.351 22.5703 276.357 22.3564H277.548C277.545 22.6787 277.457 22.9746 277.284 23.2441C277.111 23.5107 276.874 23.7188 276.572 23.8682C276.273 24.0146 275.942 24.0879 275.579 24.0879C274.899 24.0879 274.363 23.8726 273.971 23.4419C273.578 23.0083 273.382 22.4106 273.382 21.6489V21.5654C273.382 20.833 273.577 20.2485 273.966 19.812C274.356 19.3755 274.891 19.1572 275.57 19.1572C276.165 19.1572 276.641 19.3271 276.999 19.667C277.359 20.0039 277.542 20.4536 277.548 21.0161H276.357C276.351 20.77 276.275 20.5708 276.128 20.4185C275.982 20.2632 275.789 20.1855 275.548 20.1855C275.253 20.1855 275.028 20.2939 274.876 20.5107C274.727 20.7246 274.652 21.0732 274.652 21.5566V21.6885C274.652 22.1777 274.727 22.5293 274.876 22.7432C275.025 22.957 275.253 23.064 275.557 23.064ZM280.945 20.436C280.772 20.4126 280.62 20.4009 280.488 20.4009C280.007 20.4009 279.692 20.5635 279.543 20.8887V24H278.273V19.2451H279.473L279.508 19.812C279.763 19.3755 280.116 19.1572 280.567 19.1572C280.708 19.1572 280.839 19.1763 280.962 19.2144L280.945 20.436ZM282.9 24H281.626V19.2451H282.9V24ZM281.551 18.0146C281.551 17.8242 281.614 17.6675 281.74 17.5444C281.869 17.4214 282.044 17.3599 282.263 17.3599C282.48 17.3599 282.653 17.4214 282.782 17.5444C282.911 17.6675 282.975 17.8242 282.975 18.0146C282.975 18.208 282.909 18.3662 282.777 18.4893C282.648 18.6123 282.477 18.6738 282.263 18.6738C282.049 18.6738 281.877 18.6123 281.745 18.4893C281.616 18.3662 281.551 18.208 281.551 18.0146ZM288.235 21.6665C288.235 22.4282 288.073 23.0229 287.748 23.4507C287.422 23.8755 286.968 24.0879 286.385 24.0879C285.87 24.0879 285.458 23.8901 285.15 23.4946L285.093 24H283.951V17.25H285.221V19.6714C285.514 19.3286 285.899 19.1572 286.377 19.1572C286.957 19.1572 287.411 19.3711 287.739 19.7988C288.07 20.2236 288.235 20.8228 288.235 21.5962V21.6665ZM286.965 21.5742C286.965 21.0938 286.889 20.7437 286.737 20.5239C286.585 20.3013 286.357 20.1899 286.056 20.1899C285.651 20.1899 285.373 20.3555 285.221 20.6865V22.563C285.376 22.897 285.657 23.064 286.065 23.064C286.475 23.064 286.744 22.8618 286.873 22.4575C286.935 22.2642 286.965 21.9697 286.965 21.5742ZM290.362 24H289.088V19.2451H290.362V24ZM289.013 18.0146C289.013 17.8242 289.076 17.6675 289.202 17.5444C289.331 17.4214 289.505 17.3599 289.725 17.3599C289.942 17.3599 290.115 17.4214 290.244 17.5444C290.373 17.6675 290.437 17.8242 290.437 18.0146C290.437 18.208 290.371 18.3662 290.239 18.4893C290.11 18.6123 289.939 18.6738 289.725 18.6738C289.511 18.6738 289.338 18.6123 289.207 18.4893C289.078 18.3662 289.013 18.208 289.013 18.0146ZM294.085 20.436C293.912 20.4126 293.759 20.4009 293.628 20.4009C293.147 20.4009 292.832 20.5635 292.683 20.8887V24H291.413V19.2451H292.612L292.648 19.812C292.902 19.3755 293.255 19.1572 293.707 19.1572C293.847 19.1572 293.979 19.1763 294.102 19.2144L294.085 20.436ZM295.891 19.2451L295.93 19.7769C296.267 19.3638 296.723 19.1572 297.297 19.1572C297.909 19.1572 298.33 19.3989 298.558 19.8823C298.892 19.3989 299.368 19.1572 299.986 19.1572C300.502 19.1572 300.886 19.3081 301.138 19.6099C301.39 19.9087 301.516 20.3599 301.516 20.9634V24H300.241V20.9678C300.241 20.6982 300.189 20.502 300.083 20.3789C299.978 20.2529 299.792 20.1899 299.525 20.1899C299.144 20.1899 298.88 20.3716 298.734 20.7349L298.738 24H297.468V20.9722C297.468 20.6968 297.414 20.4976 297.306 20.3745C297.197 20.2515 297.013 20.1899 296.752 20.1899C296.392 20.1899 296.131 20.3394 295.97 20.6382V24H294.7V19.2451H295.891ZM304.684 24.0879C303.987 24.0879 303.419 23.874 302.979 23.4463C302.543 23.0186 302.324 22.4487 302.324 21.7368V21.6138C302.324 21.1362 302.417 20.71 302.601 20.335C302.786 19.957 303.046 19.667 303.383 19.4648C303.723 19.2598 304.11 19.1572 304.544 19.1572C305.194 19.1572 305.705 19.3623 306.077 19.7725C306.452 20.1826 306.64 20.7642 306.64 21.5171V22.0356H303.612C303.653 22.3462 303.776 22.5952 303.981 22.7827C304.189 22.9702 304.451 23.064 304.768 23.064C305.257 23.064 305.639 22.8867 305.915 22.5322L306.539 23.231C306.348 23.5005 306.09 23.7114 305.765 23.8638C305.44 24.0132 305.08 24.0879 304.684 24.0879ZM304.539 20.1855C304.287 20.1855 304.082 20.2705 303.924 20.4404C303.769 20.6104 303.669 20.8535 303.625 21.1699H305.392V21.0688C305.386 20.7876 305.31 20.5708 305.163 20.4185C305.017 20.2632 304.809 20.1855 304.539 20.1855Z" fill="#3C2313"/>
<path d="M19.7734 24H18.9252L15.704 19.0693V24H14.8559V17.6016H15.704L18.934 22.5542V17.6016H19.7734V24ZM20.9291 21.5786C20.9291 21.1128 21.02 20.6938 21.2016 20.3218C21.3862 19.9497 21.6411 19.6626 21.9662 19.4604C22.2944 19.2583 22.6679 19.1572 23.0869 19.1572C23.7343 19.1572 24.2573 19.3813 24.6557 19.8296C25.0571 20.2778 25.2578 20.874 25.2578 21.6182V21.6753C25.2578 22.1382 25.1684 22.5542 24.9897 22.9233C24.8139 23.2896 24.5605 23.5752 24.2294 23.7803C23.9013 23.9854 23.5234 24.0879 23.0956 24.0879C22.4511 24.0879 21.9282 23.8638 21.5268 23.4155C21.1284 22.9673 20.9291 22.374 20.9291 21.6357V21.5786ZM21.7465 21.6753C21.7465 22.2026 21.8681 22.626 22.1113 22.9453C22.3574 23.2646 22.6855 23.4243 23.0956 23.4243C23.5087 23.4243 23.8369 23.2632 24.08 22.9409C24.3232 22.6157 24.4448 22.1616 24.4448 21.5786C24.4448 21.0571 24.3203 20.6353 24.0712 20.313C23.8251 19.9878 23.497 19.8252 23.0869 19.8252C22.6855 19.8252 22.3618 19.9849 22.1157 20.3042C21.8696 20.6235 21.7465 21.0806 21.7465 21.6753ZM27.0419 19.2451L27.0639 19.7725C27.4125 19.3623 27.8828 19.1572 28.4745 19.1572C29.1396 19.1572 29.5922 19.4121 29.8325 19.9219C29.9907 19.6934 30.1957 19.5088 30.4477 19.3682C30.7026 19.2275 31.0029 19.1572 31.3486 19.1572C32.3915 19.1572 32.9218 19.7095 32.9394 20.814V24H32.1264V20.8623C32.1264 20.5225 32.0488 20.269 31.8935 20.1021C31.7382 19.9321 31.4775 19.8472 31.1113 19.8472C30.8095 19.8472 30.559 19.938 30.3598 20.1196C30.1606 20.2983 30.0449 20.54 30.0126 20.8447V24H29.1953V20.8843C29.1953 20.1929 28.8569 19.8472 28.1801 19.8472C27.6469 19.8472 27.2822 20.0742 27.0859 20.5283V24H26.2729V19.2451H27.0419ZM38.1953 21.6753C38.1953 22.4019 38.0283 22.9863 37.6943 23.4287C37.3603 23.8682 36.912 24.0879 36.3495 24.0879C35.749 24.0879 35.2846 23.8755 34.9565 23.4507L34.9169 24H34.1699V17.25H34.9828V19.7681C35.311 19.3608 35.7636 19.1572 36.3408 19.1572C36.9179 19.1572 37.3705 19.3755 37.6987 19.812C38.0297 20.2485 38.1953 20.8462 38.1953 21.605V21.6753ZM37.3823 21.583C37.3823 21.0293 37.2753 20.6016 37.0615 20.2998C36.8476 19.998 36.54 19.8472 36.1386 19.8472C35.6025 19.8472 35.2172 20.0962 34.9828 20.5942V22.6509C35.2319 23.1489 35.6201 23.3979 36.1474 23.3979C36.537 23.3979 36.8403 23.2471 37.0571 22.9453C37.2739 22.6436 37.3823 22.1895 37.3823 21.583ZM41.5219 19.9746C41.3989 19.9541 41.2656 19.9438 41.122 19.9438C40.5888 19.9438 40.227 20.1709 40.0366 20.625V24H39.2236V19.2451H40.0146L40.0278 19.7944C40.2944 19.3696 40.6723 19.1572 41.1616 19.1572C41.3198 19.1572 41.4399 19.1777 41.5219 19.2188V19.9746ZM44.1586 24.0879C43.5141 24.0879 42.9897 23.877 42.5854 23.4551C42.1811 23.0303 41.9789 22.4634 41.9789 21.7544V21.605C41.9789 21.1333 42.0683 20.7129 42.247 20.3438C42.4286 19.9717 42.6806 19.6816 43.0029 19.4736C43.3281 19.2627 43.6796 19.1572 44.0576 19.1572C44.6757 19.1572 45.1562 19.3608 45.499 19.7681C45.8417 20.1753 46.0131 20.7583 46.0131 21.5171V21.8555H42.7919C42.8036 22.3242 42.9399 22.7036 43.2006 22.9937C43.4643 23.2808 43.7983 23.4243 44.2026 23.4243C44.4897 23.4243 44.7328 23.3657 44.9321 23.2485C45.1313 23.1313 45.3056 22.9761 45.455 22.7827L45.9516 23.1694C45.5532 23.7817 44.9555 24.0879 44.1586 24.0879ZM44.0576 19.8252C43.7294 19.8252 43.454 19.9453 43.2314 20.1855C43.0087 20.4229 42.871 20.7568 42.8183 21.1875H45.2001V21.126C45.1767 20.7129 45.0654 20.3936 44.8661 20.168C44.6669 19.9395 44.3974 19.8252 44.0576 19.8252ZM50.746 22.8091L51.8535 19.2451H52.7236L50.812 24.7339C50.5161 25.5249 50.0458 25.9204 49.4013 25.9204L49.2475 25.9072L48.9443 25.8501V25.1909L49.164 25.2085C49.4394 25.2085 49.6533 25.1528 49.8056 25.0415C49.9609 24.9302 50.0883 24.7266 50.1879 24.4307L50.3681 23.9473L48.6718 19.2451H49.5595L50.746 22.8091ZM59.3461 22.3301H56.6655L56.0634 24H55.1933L57.6367 17.6016H58.3749L60.8227 24H59.957L59.3461 22.3301ZM56.9203 21.6357H59.0956L58.0058 18.6431L56.9203 21.6357ZM65.5732 21.6753C65.5732 22.3989 65.4077 22.9819 65.0766 23.4243C64.7455 23.8667 64.2973 24.0879 63.7319 24.0879C63.1547 24.0879 62.7006 23.9048 62.3696 23.5386V25.8281H61.5566V19.2451H62.2993L62.3388 19.7725C62.6699 19.3623 63.1298 19.1572 63.7187 19.1572C64.29 19.1572 64.7411 19.3726 65.0722 19.8032C65.4062 20.2339 65.5732 20.833 65.5732 21.6006V21.6753ZM64.7602 21.583C64.7602 21.0469 64.6459 20.6235 64.4174 20.313C64.1889 20.0024 63.8754 19.8472 63.477 19.8472C62.9848 19.8472 62.6157 20.0654 62.3696 20.502V22.7739C62.6127 23.2075 62.9848 23.4243 63.4858 23.4243C63.8754 23.4243 64.1845 23.2705 64.413 22.9629C64.6445 22.6523 64.7602 22.1924 64.7602 21.583ZM68.5834 24.0879C67.9389 24.0879 67.4145 23.877 67.0102 23.4551C66.6059 23.0303 66.4037 22.4634 66.4037 21.7544V21.605C66.4037 21.1333 66.4931 20.7129 66.6718 20.3438C66.8535 19.9717 67.1054 19.6816 67.4277 19.4736C67.7529 19.2627 68.1044 19.1572 68.4824 19.1572C69.1005 19.1572 69.581 19.3608 69.9238 19.7681C70.2665 20.1753 70.4379 20.7583 70.4379 21.5171V21.8555H67.2167C67.2285 22.3242 67.3647 22.7036 67.6254 22.9937C67.8891 23.2808 68.2231 23.4243 68.6274 23.4243C68.9145 23.4243 69.1577 23.3657 69.3569 23.2485C69.5561 23.1313 69.7304 22.9761 69.8798 22.7827L70.3764 23.1694C69.978 23.7817 69.3803 24.0879 68.5834 24.0879ZM68.4824 19.8252C68.1542 19.8252 67.8788 19.9453 67.6562 20.1855C67.4335 20.4229 67.2958 20.7568 67.2431 21.1875H69.6249V21.126C69.6015 20.7129 69.4902 20.3936 69.291 20.168C69.0917 19.9395 68.8222 19.8252 68.4824 19.8252ZM72.2661 24H71.4531V17.25H72.2661V24ZM74.4545 24H73.6415V17.25H74.4545V24ZM76.643 24H75.83V19.2451H76.643V24ZM75.7641 17.9839C75.7641 17.8521 75.8036 17.7407 75.8828 17.6499C75.9648 17.5591 76.0849 17.5137 76.2431 17.5137C76.4013 17.5137 76.5214 17.5591 76.6035 17.6499C76.6855 17.7407 76.7265 17.8521 76.7265 17.9839C76.7265 18.1157 76.6855 18.2256 76.6035 18.3135C76.5214 18.4014 76.4013 18.4453 76.2431 18.4453C76.0849 18.4453 75.9648 18.4014 75.8828 18.3135C75.8036 18.2256 75.7641 18.1157 75.7641 17.9839ZM77.7504 21.583C77.7504 20.8535 77.9233 20.2676 78.269 19.8252C78.6147 19.3799 79.0673 19.1572 79.6269 19.1572C80.1835 19.1572 80.6245 19.3477 80.9496 19.7285V17.25H81.7626V24H81.0156L80.976 23.4902C80.6508 23.8887 80.1982 24.0879 79.6181 24.0879C79.0673 24.0879 78.6176 23.8623 78.269 23.4111C77.9233 22.96 77.7504 22.3711 77.7504 21.6445V21.583ZM78.5634 21.6753C78.5634 22.2144 78.6747 22.6362 78.8974 22.9409C79.1201 23.2456 79.4277 23.3979 79.8203 23.3979C80.3359 23.3979 80.7123 23.1665 80.9496 22.7036V20.5195C80.7065 20.0713 80.3329 19.8472 79.829 19.8472C79.4306 19.8472 79.1201 20.001 78.8974 20.3086C78.6747 20.6162 78.5634 21.0718 78.5634 21.6753ZM82.8129 21.5786C82.8129 21.1128 82.9037 20.6938 83.0854 20.3218C83.27 19.9497 83.5248 19.6626 83.85 19.4604C84.1782 19.2583 84.5517 19.1572 84.9706 19.1572C85.6181 19.1572 86.1411 19.3813 86.5395 19.8296C86.9409 20.2778 87.1415 20.874 87.1415 21.6182V21.6753C87.1415 22.1382 87.0522 22.5542 86.8735 22.9233C86.6977 23.2896 86.4443 23.5752 86.1132 23.7803C85.7851 23.9854 85.4072 24.0879 84.9794 24.0879C84.3349 24.0879 83.812 23.8638 83.4106 23.4155C83.0121 22.9673 82.8129 22.374 82.8129 21.6357V21.5786ZM83.6303 21.6753C83.6303 22.2026 83.7519 22.626 83.9951 22.9453C84.2411 23.2646 84.5693 23.4243 84.9794 23.4243C85.3925 23.4243 85.7206 23.2632 85.9638 22.9409C86.207 22.6157 86.3286 22.1616 86.3286 21.5786C86.3286 21.0571 86.204 20.6353 85.955 20.313C85.7089 19.9878 85.3808 19.8252 84.9706 19.8252C84.5693 19.8252 84.2455 19.9849 83.9995 20.3042C83.7534 20.6235 83.6303 21.0806 83.6303 21.6753Z" fill="white"/>
</svg>
