<svg width="110" height="34" viewBox="0 0 110 34" fill="none" xmlns="http://www.w3.org/2000/svg">
<rect width="110" height="34" rx="15" fill="#8A8787"/>
<path d="M27.4922 18.3984H24.8203V23H23.3125V11.625H27.0781C28.3594 11.625 29.3438 11.9167 30.0312 12.5C30.724 13.0833 31.0703 13.9323 31.0703 15.0469C31.0703 15.7552 30.8776 16.3724 30.4922 16.8984C30.112 17.4245 29.5807 17.8177 28.8984 18.0781L31.5703 22.9062V23H29.9609L27.4922 18.3984ZM24.8203 17.1719H27.125C27.8698 17.1719 28.4609 16.9792 28.8984 16.5938C29.3411 16.2083 29.5625 15.6927 29.5625 15.0469C29.5625 14.3438 29.3516 13.8047 28.9297 13.4297C28.513 13.0547 27.9089 12.8646 27.1172 12.8594H24.8203V17.1719ZM36.4609 23.1562C35.3151 23.1562 34.3828 22.7812 33.6641 22.0312C32.9453 21.276 32.5859 20.2682 32.5859 19.0078V18.7422C32.5859 17.9036 32.7448 17.1562 33.0625 16.5C33.3854 15.8385 33.8333 15.3229 34.4062 14.9531C34.9844 14.5781 35.6094 14.3906 36.2812 14.3906C37.3802 14.3906 38.2344 14.7526 38.8438 15.4766C39.4531 16.2005 39.7578 17.237 39.7578 18.5859V19.1875H34.0312C34.0521 20.0208 34.2943 20.6953 34.7578 21.2109C35.2266 21.7214 35.8203 21.9766 36.5391 21.9766C37.0495 21.9766 37.4818 21.8724 37.8359 21.6641C38.1901 21.4557 38.5 21.1797 38.7656 20.8359L39.6484 21.5234C38.9401 22.612 37.8776 23.1562 36.4609 23.1562ZM36.2812 15.5781C35.6979 15.5781 35.2083 15.7917 34.8125 16.2188C34.4167 16.6406 34.1719 17.2344 34.0781 18H38.3125V17.8906C38.2708 17.1562 38.0729 16.5885 37.7188 16.1875C37.3646 15.7812 36.8854 15.5781 36.2812 15.5781ZM46.3594 20.7578C46.3594 20.3672 46.2109 20.0651 45.9141 19.8516C45.6224 19.6328 45.1094 19.4453 44.375 19.2891C43.6458 19.1328 43.0651 18.9453 42.6328 18.7266C42.2057 18.5078 41.888 18.2474 41.6797 17.9453C41.4766 17.6432 41.375 17.2839 41.375 16.8672C41.375 16.1745 41.6667 15.5885 42.25 15.1094C42.8385 14.6302 43.5885 14.3906 44.5 14.3906C45.4583 14.3906 46.2344 14.638 46.8281 15.1328C47.4271 15.6276 47.7266 16.2604 47.7266 17.0312H46.2734C46.2734 16.6354 46.1042 16.2943 45.7656 16.0078C45.4323 15.7214 45.0104 15.5781 44.5 15.5781C43.974 15.5781 43.5625 15.6927 43.2656 15.9219C42.9688 16.151 42.8203 16.4505 42.8203 16.8203C42.8203 17.1693 42.9583 17.4323 43.2344 17.6094C43.5104 17.7865 44.0078 17.9557 44.7266 18.1172C45.4505 18.2786 46.0365 18.4714 46.4844 18.6953C46.9323 18.9193 47.263 19.1901 47.4766 19.5078C47.6953 19.8203 47.8047 20.2031 47.8047 20.6562C47.8047 21.4115 47.5026 22.0182 46.8984 22.4766C46.2943 22.9297 45.5104 23.1562 44.5469 23.1562C43.8698 23.1562 43.2708 23.0365 42.75 22.7969C42.2292 22.5573 41.8203 22.224 41.5234 21.7969C41.2318 21.3646 41.0859 20.8984 41.0859 20.3984H42.5312C42.5573 20.8828 42.75 21.2682 43.1094 21.5547C43.474 21.8359 43.9531 21.9766 44.5469 21.9766C45.0938 21.9766 45.5312 21.8672 45.8594 21.6484C46.1927 21.4245 46.3594 21.1276 46.3594 20.7578ZM53.1953 23.1562C52.0495 23.1562 51.1172 22.7812 50.3984 22.0312C49.6797 21.276 49.3203 20.2682 49.3203 19.0078V18.7422C49.3203 17.9036 49.4792 17.1562 49.7969 16.5C50.1198 15.8385 50.5677 15.3229 51.1406 14.9531C51.7188 14.5781 52.3438 14.3906 53.0156 14.3906C54.1146 14.3906 54.9688 14.7526 55.5781 15.4766C56.1875 16.2005 56.4922 17.237 56.4922 18.5859V19.1875H50.7656C50.7865 20.0208 51.0286 20.6953 51.4922 21.2109C51.9609 21.7214 52.5547 21.9766 53.2734 21.9766C53.7839 21.9766 54.2161 21.8724 54.5703 21.6641C54.9245 21.4557 55.2344 21.1797 55.5 20.8359L56.3828 21.5234C55.6745 22.612 54.612 23.1562 53.1953 23.1562ZM53.0156 15.5781C52.4323 15.5781 51.9427 15.7917 51.5469 16.2188C51.151 16.6406 50.9062 17.2344 50.8125 18H55.0469V17.8906C55.0052 17.1562 54.8073 16.5885 54.4531 16.1875C54.099 15.7812 53.6198 15.5781 53.0156 15.5781ZM60.1328 12.5V14.5469H61.7109V15.6641H60.1328V20.9062C60.1328 21.2448 60.2031 21.5 60.3438 21.6719C60.4844 21.8385 60.724 21.9219 61.0625 21.9219C61.2292 21.9219 61.4583 21.8906 61.75 21.8281V23C61.3698 23.1042 61 23.1562 60.6406 23.1562C59.9948 23.1562 59.5078 22.9609 59.1797 22.5703C58.8516 22.1797 58.6875 21.625 58.6875 20.9062V15.6641H57.1484V14.5469H58.6875V12.5H60.1328ZM66.9141 23.1562C65.7682 23.1562 64.8359 22.7812 64.1172 22.0312C63.3984 21.276 63.0391 20.2682 63.0391 19.0078V18.7422C63.0391 17.9036 63.1979 17.1562 63.5156 16.5C63.8385 15.8385 64.2865 15.3229 64.8594 14.9531C65.4375 14.5781 66.0625 14.3906 66.7344 14.3906C67.8333 14.3906 68.6875 14.7526 69.2969 15.4766C69.9062 16.2005 70.2109 17.237 70.2109 18.5859V19.1875H64.4844C64.5052 20.0208 64.7474 20.6953 65.2109 21.2109C65.6797 21.7214 66.2734 21.9766 66.9922 21.9766C67.5026 21.9766 67.9349 21.8724 68.2891 21.6641C68.6432 21.4557 68.9531 21.1797 69.2188 20.8359L70.1016 21.5234C69.3932 22.612 68.3307 23.1562 66.9141 23.1562ZM66.7344 15.5781C66.151 15.5781 65.6615 15.7917 65.2656 16.2188C64.8698 16.6406 64.625 17.2344 64.5312 18H68.7656V17.8906C68.724 17.1562 68.526 16.5885 68.1719 16.1875C67.8177 15.7812 67.3385 15.5781 66.7344 15.5781ZM77.1094 23C77.026 22.8333 76.9583 22.5365 76.9062 22.1094C76.2344 22.8073 75.4323 23.1562 74.5 23.1562C73.6667 23.1562 72.9818 22.9219 72.4453 22.4531C71.9141 21.9792 71.6484 21.3802 71.6484 20.6562C71.6484 19.776 71.9818 19.0938 72.6484 18.6094C73.3203 18.1198 74.263 17.875 75.4766 17.875H76.8828V17.2109C76.8828 16.7057 76.7318 16.3047 76.4297 16.0078C76.1276 15.7057 75.6823 15.5547 75.0938 15.5547C74.5781 15.5547 74.1458 15.6849 73.7969 15.9453C73.4479 16.2057 73.2734 16.5208 73.2734 16.8906H71.8203C71.8203 16.4688 71.9688 16.0625 72.2656 15.6719C72.5677 15.276 72.974 14.9635 73.4844 14.7344C74 14.5052 74.5651 14.3906 75.1797 14.3906C76.1536 14.3906 76.9167 14.6354 77.4688 15.125C78.0208 15.6094 78.3073 16.2786 78.3281 17.1328V21.0234C78.3281 21.7995 78.4271 22.4167 78.625 22.875V23H77.1094ZM74.7109 21.8984C75.1641 21.8984 75.5938 21.7812 76 21.5469C76.4062 21.3125 76.7005 21.0078 76.8828 20.6328V18.8984H75.75C73.9792 18.8984 73.0938 19.4167 73.0938 20.4531C73.0938 20.9062 73.2448 21.2604 73.5469 21.5156C73.849 21.7708 74.237 21.8984 74.7109 21.8984ZM84.6797 15.8438C84.4609 15.8073 84.224 15.7891 83.9688 15.7891C83.0208 15.7891 82.3776 16.1927 82.0391 17V23H80.5938V14.5469H82L82.0234 15.5234C82.4974 14.7682 83.1693 14.3906 84.0391 14.3906C84.3203 14.3906 84.5339 14.4271 84.6797 14.5V15.8438Z" fill="white"/>
</svg>
