<svg width="346" height="40" viewBox="0 0 346 40" fill="none" xmlns="http://www.w3.org/2000/svg">
<rect width="271" height="40" rx="15" fill="white"/>
<rect x="276" y="3" width="70" height="34" rx="15" fill="#3C2313"/>
<path d="M290.889 22.3213C290.889 22.0723 290.801 21.8818 290.625 21.75C290.45 21.6152 290.133 21.4746 289.676 21.3281C289.219 21.1787 288.857 21.0322 288.591 20.8887C287.864 20.4961 287.501 19.9673 287.501 19.3022C287.501 18.9565 287.598 18.6489 287.791 18.3794C287.987 18.1069 288.267 17.8945 288.63 17.7422C288.997 17.5898 289.407 17.5137 289.861 17.5137C290.318 17.5137 290.725 17.5972 291.083 17.7642C291.44 17.9282 291.717 18.1611 291.913 18.4629C292.112 18.7646 292.212 19.1074 292.212 19.4912H290.894C290.894 19.1982 290.801 18.9712 290.617 18.8101C290.432 18.646 290.173 18.564 289.839 18.564C289.517 18.564 289.266 18.6328 289.087 18.7705C288.909 18.9053 288.819 19.084 288.819 19.3066C288.819 19.5146 288.923 19.689 289.131 19.8296C289.342 19.9702 289.651 20.1021 290.059 20.2251C290.809 20.4507 291.355 20.7305 291.698 21.0645C292.041 21.3984 292.212 21.8145 292.212 22.3125C292.212 22.8662 292.002 23.3013 291.583 23.6177C291.165 23.9312 290.601 24.0879 289.892 24.0879C289.399 24.0879 288.951 23.9985 288.547 23.8198C288.143 23.6382 287.833 23.3906 287.62 23.0771C287.409 22.7637 287.303 22.4004 287.303 21.9873H288.626C288.626 22.6934 289.048 23.0464 289.892 23.0464C290.205 23.0464 290.45 22.9834 290.625 22.8574C290.801 22.7285 290.889 22.5498 290.889 22.3213ZM295.873 23.5166C295.559 23.8975 295.125 24.0879 294.572 24.0879C294.062 24.0879 293.672 23.9414 293.403 23.6484C293.136 23.3555 293 22.9263 292.994 22.3608V19.2451H294.264V22.3169C294.264 22.812 294.49 23.0596 294.941 23.0596C295.372 23.0596 295.667 22.9102 295.829 22.6113V19.2451H297.103V24H295.908L295.873 23.5166ZM300.636 22.686C300.636 22.5308 300.559 22.4092 300.403 22.3213C300.251 22.2305 300.005 22.1499 299.665 22.0796C298.534 21.8423 297.969 21.3618 297.969 20.6382C297.969 20.2163 298.143 19.8647 298.492 19.5835C298.843 19.2993 299.302 19.1572 299.867 19.1572C300.471 19.1572 300.953 19.2993 301.313 19.5835C301.676 19.8677 301.858 20.2368 301.858 20.6909H300.588C300.588 20.5093 300.529 20.3599 300.412 20.2427C300.295 20.1226 300.112 20.0625 299.863 20.0625C299.649 20.0625 299.483 20.1108 299.366 20.2075C299.249 20.3042 299.19 20.4272 299.19 20.5767C299.19 20.7173 299.256 20.8315 299.388 20.9194C299.523 21.0044 299.749 21.0791 300.065 21.1436C300.381 21.2051 300.648 21.2754 300.865 21.3545C301.536 21.6006 301.871 22.0269 301.871 22.6333C301.871 23.0669 301.685 23.4185 301.313 23.688C300.941 23.9546 300.46 24.0879 299.872 24.0879C299.473 24.0879 299.119 24.0176 298.808 23.877C298.5 23.7334 298.259 23.5386 298.083 23.2925C297.907 23.0435 297.819 22.7754 297.819 22.4883H299.023C299.035 22.7139 299.119 22.8867 299.274 23.0068C299.429 23.127 299.637 23.187 299.898 23.187C300.141 23.187 300.324 23.1416 300.447 23.0508C300.573 22.957 300.636 22.8354 300.636 22.686ZM304.67 23.064C304.905 23.064 305.095 22.9995 305.242 22.8706C305.388 22.7417 305.464 22.5703 305.47 22.3564H306.661C306.658 22.6787 306.57 22.9746 306.397 23.2441C306.225 23.5107 305.987 23.7188 305.686 23.8682C305.387 24.0146 305.056 24.0879 304.692 24.0879C304.013 24.0879 303.477 23.8726 303.084 23.4419C302.691 23.0083 302.495 22.4106 302.495 21.6489V21.5654C302.495 20.833 302.69 20.2485 303.08 19.812C303.469 19.3755 304.004 19.1572 304.684 19.1572C305.278 19.1572 305.754 19.3271 306.112 19.667C306.472 20.0039 306.655 20.4536 306.661 21.0161H305.47C305.464 20.77 305.388 20.5708 305.242 20.4185C305.095 20.2632 304.902 20.1855 304.662 20.1855C304.366 20.1855 304.142 20.2939 303.989 20.5107C303.84 20.7246 303.765 21.0732 303.765 21.5566V21.6885C303.765 22.1777 303.84 22.5293 303.989 22.7432C304.139 22.957 304.366 23.064 304.67 23.064ZM310.058 20.436C309.885 20.4126 309.733 20.4009 309.601 20.4009C309.121 20.4009 308.806 20.5635 308.656 20.8887V24H307.386V19.2451H308.586L308.621 19.812C308.876 19.3755 309.229 19.1572 309.68 19.1572C309.821 19.1572 309.953 19.1763 310.076 19.2144L310.058 20.436ZM312.014 24H310.739V19.2451H312.014V24ZM310.665 18.0146C310.665 17.8242 310.728 17.6675 310.854 17.5444C310.982 17.4214 311.157 17.3599 311.376 17.3599C311.593 17.3599 311.766 17.4214 311.895 17.5444C312.024 17.6675 312.088 17.8242 312.088 18.0146C312.088 18.208 312.022 18.3662 311.891 18.4893C311.762 18.6123 311.59 18.6738 311.376 18.6738C311.163 18.6738 310.99 18.6123 310.858 18.4893C310.729 18.3662 310.665 18.208 310.665 18.0146ZM317.349 21.6665C317.349 22.4282 317.186 23.0229 316.861 23.4507C316.536 23.8755 316.082 24.0879 315.499 24.0879C314.983 24.0879 314.571 23.8901 314.264 23.4946L314.207 24H313.064V17.25H314.334V19.6714C314.627 19.3286 315.012 19.1572 315.49 19.1572C316.07 19.1572 316.524 19.3711 316.852 19.7988C317.183 20.2236 317.349 20.8228 317.349 21.5962V21.6665ZM316.079 21.5742C316.079 21.0938 316.002 20.7437 315.85 20.5239C315.698 20.3013 315.471 20.1899 315.169 20.1899C314.765 20.1899 314.486 20.3555 314.334 20.6865V22.563C314.489 22.897 314.771 23.064 315.178 23.064C315.588 23.064 315.857 22.8618 315.986 22.4575C316.048 22.2642 316.079 21.9697 316.079 21.5742ZM319.476 24H318.201V19.2451H319.476V24ZM318.126 18.0146C318.126 17.8242 318.189 17.6675 318.315 17.5444C318.444 17.4214 318.619 17.3599 318.838 17.3599C319.055 17.3599 319.228 17.4214 319.357 17.5444C319.486 17.6675 319.55 17.8242 319.55 18.0146C319.55 18.208 319.484 18.3662 319.353 18.4893C319.224 18.6123 319.052 18.6738 318.838 18.6738C318.625 18.6738 318.452 18.6123 318.32 18.4893C318.191 18.3662 318.126 18.208 318.126 18.0146ZM323.198 20.436C323.025 20.4126 322.873 20.4009 322.741 20.4009C322.26 20.4009 321.945 20.5635 321.796 20.8887V24H320.526V19.2451H321.726L321.761 19.812C322.016 19.3755 322.369 19.1572 322.82 19.1572C322.96 19.1572 323.092 19.1763 323.215 19.2144L323.198 20.436ZM325.004 19.2451L325.043 19.7769C325.38 19.3638 325.836 19.1572 326.41 19.1572C327.022 19.1572 327.443 19.3989 327.671 19.8823C328.005 19.3989 328.481 19.1572 329.1 19.1572C329.615 19.1572 329.999 19.3081 330.251 19.6099C330.503 19.9087 330.629 20.3599 330.629 20.9634V24H329.354V20.9678C329.354 20.6982 329.302 20.502 329.196 20.3789C329.091 20.2529 328.905 20.1899 328.638 20.1899C328.257 20.1899 327.994 20.3716 327.847 20.7349L327.852 24H326.582V20.9722C326.582 20.6968 326.527 20.4976 326.419 20.3745C326.311 20.2515 326.126 20.1899 325.865 20.1899C325.505 20.1899 325.244 20.3394 325.083 20.6382V24H323.813V19.2451H325.004ZM333.797 24.0879C333.1 24.0879 332.532 23.874 332.092 23.4463C331.656 23.0186 331.438 22.4487 331.438 21.7368V21.6138C331.438 21.1362 331.53 20.71 331.714 20.335C331.899 19.957 332.16 19.667 332.497 19.4648C332.836 19.2598 333.223 19.1572 333.657 19.1572C334.307 19.1572 334.818 19.3623 335.19 19.7725C335.565 20.1826 335.753 20.7642 335.753 21.5171V22.0356H332.725C332.766 22.3462 332.889 22.5952 333.094 22.7827C333.302 22.9702 333.564 23.064 333.881 23.064C334.37 23.064 334.752 22.8867 335.028 22.5322L335.652 23.231C335.461 23.5005 335.204 23.7114 334.878 23.8638C334.553 24.0132 334.193 24.0879 333.797 24.0879ZM333.652 20.1855C333.4 20.1855 333.195 20.2705 333.037 20.4404C332.882 20.6104 332.782 20.8535 332.738 21.1699H334.505V21.0688C334.499 20.7876 334.423 20.5708 334.276 20.4185C334.13 20.2632 333.922 20.1855 333.652 20.1855Z" fill="white"/>
<path d="M9.64795 23H8.8042V16.6016H9.64795V23ZM11.8364 18.2451L11.8628 18.8428C12.2261 18.3857 12.7007 18.1572 13.2866 18.1572C14.2915 18.1572 14.7983 18.7241 14.8071 19.8579V23H13.9941V19.8535C13.9912 19.5107 13.9121 19.2573 13.7568 19.0933C13.6045 18.9292 13.3657 18.8472 13.0405 18.8472C12.7769 18.8472 12.5454 18.9175 12.3462 19.0581C12.147 19.1987 11.9917 19.3833 11.8804 19.6118V23H11.0674V18.2451H11.8364ZM15.8398 20.583C15.8398 19.8418 16.0112 19.2529 16.354 18.8164C16.6968 18.377 17.1509 18.1572 17.7163 18.1572C18.2964 18.1572 18.749 18.3623 19.0742 18.7725L19.1138 18.2451H19.8564V22.8857C19.8564 23.501 19.6733 23.9858 19.3071 24.3403C18.9438 24.6948 18.4546 24.8721 17.8394 24.8721C17.4966 24.8721 17.1611 24.7988 16.833 24.6523C16.5049 24.5059 16.2544 24.3052 16.0815 24.0503L16.5034 23.5625C16.8521 23.9932 17.2783 24.2085 17.7822 24.2085C18.1777 24.2085 18.4854 24.0972 18.7051 23.8745C18.9277 23.6519 19.0391 23.3384 19.0391 22.9341V22.5254C18.7139 22.9004 18.27 23.0879 17.7075 23.0879C17.1509 23.0879 16.6997 22.8638 16.354 22.4155C16.0112 21.9673 15.8398 21.3564 15.8398 20.583ZM16.6572 20.6753C16.6572 21.2114 16.7671 21.6333 16.9868 21.9409C17.2065 22.2456 17.5142 22.3979 17.9097 22.3979C18.4224 22.3979 18.7988 22.165 19.0391 21.6992V19.5283C18.79 19.0742 18.4165 18.8472 17.9185 18.8472C17.5229 18.8472 17.2139 19.001 16.9912 19.3086C16.7686 19.6162 16.6572 20.0718 16.6572 20.6753ZM23.3853 18.9746C23.2622 18.9541 23.1289 18.9438 22.9854 18.9438C22.4521 18.9438 22.0903 19.1709 21.8999 19.625V23H21.0869V18.2451H21.8779L21.8911 18.7944C22.1577 18.3696 22.5356 18.1572 23.0249 18.1572C23.1831 18.1572 23.3032 18.1777 23.3853 18.2188V18.9746ZM26.022 23.0879C25.3774 23.0879 24.853 22.877 24.4487 22.4551C24.0444 22.0303 23.8423 21.4634 23.8423 20.7544V20.605C23.8423 20.1333 23.9316 19.7129 24.1104 19.3438C24.292 18.9717 24.5439 18.6816 24.8662 18.4736C25.1914 18.2627 25.543 18.1572 25.9209 18.1572C26.5391 18.1572 27.0195 18.3608 27.3623 18.7681C27.7051 19.1753 27.8765 19.7583 27.8765 20.5171V20.8555H24.6553C24.667 21.3242 24.8032 21.7036 25.064 21.9937C25.3276 22.2808 25.6616 22.4243 26.0659 22.4243C26.353 22.4243 26.5962 22.3657 26.7954 22.2485C26.9946 22.1313 27.1689 21.9761 27.3184 21.7827L27.8149 22.1694C27.4165 22.7817 26.8188 23.0879 26.022 23.0879ZM25.9209 18.8252C25.5928 18.8252 25.3174 18.9453 25.0947 19.1855C24.8721 19.4229 24.7344 19.7568 24.6816 20.1875H27.0635V20.126C27.04 19.7129 26.9287 19.3936 26.7295 19.168C26.5303 18.9395 26.2607 18.8252 25.9209 18.8252ZM31.5898 21.7388C31.5898 21.519 31.5063 21.3491 31.3394 21.229C31.1753 21.106 30.8867 21.0005 30.4736 20.9126C30.0635 20.8247 29.7368 20.7192 29.4937 20.5962C29.2534 20.4731 29.0747 20.3267 28.9575 20.1567C28.8433 19.9868 28.7861 19.7847 28.7861 19.5503C28.7861 19.1606 28.9502 18.8311 29.2783 18.5615C29.6094 18.292 30.0312 18.1572 30.5439 18.1572C31.083 18.1572 31.5195 18.2964 31.8535 18.5747C32.1904 18.853 32.3589 19.209 32.3589 19.6426H31.5415C31.5415 19.4199 31.4463 19.228 31.2559 19.0669C31.0684 18.9058 30.8311 18.8252 30.5439 18.8252C30.248 18.8252 30.0166 18.8896 29.8496 19.0186C29.6826 19.1475 29.5991 19.3159 29.5991 19.5239C29.5991 19.7202 29.6768 19.8682 29.832 19.9678C29.9873 20.0674 30.2671 20.1626 30.6714 20.2534C31.0786 20.3442 31.4082 20.4526 31.6602 20.5786C31.9121 20.7046 32.0981 20.8569 32.2183 21.0356C32.3413 21.2114 32.4028 21.4268 32.4028 21.6816C32.4028 22.1064 32.2329 22.4478 31.8931 22.7056C31.5532 22.9604 31.1123 23.0879 30.5703 23.0879C30.1895 23.0879 29.8525 23.0205 29.5596 22.8857C29.2666 22.751 29.0366 22.5635 28.8696 22.3232C28.7056 22.0801 28.6235 21.8179 28.6235 21.5366H29.4365C29.4512 21.8091 29.5596 22.0259 29.7617 22.187C29.9668 22.3452 30.2363 22.4243 30.5703 22.4243C30.8779 22.4243 31.124 22.3628 31.3086 22.2397C31.4961 22.1138 31.5898 21.9468 31.5898 21.7388ZM36.3975 23C36.3506 22.9062 36.3125 22.7393 36.2832 22.499C35.9053 22.8916 35.4541 23.0879 34.9297 23.0879C34.4609 23.0879 34.0757 22.9561 33.7739 22.6924C33.4751 22.4258 33.3257 22.0889 33.3257 21.6816C33.3257 21.1865 33.5132 20.8027 33.8882 20.5303C34.2661 20.2549 34.7964 20.1172 35.479 20.1172H36.27V19.7437C36.27 19.4595 36.1851 19.2339 36.0151 19.0669C35.8452 18.897 35.5947 18.812 35.2637 18.812C34.9736 18.812 34.7305 18.8853 34.5342 19.0317C34.3379 19.1782 34.2397 19.3555 34.2397 19.5635H33.4224C33.4224 19.3262 33.5059 19.0977 33.6729 18.8779C33.8428 18.6553 34.0713 18.4795 34.3584 18.3506C34.6484 18.2217 34.9663 18.1572 35.312 18.1572C35.8599 18.1572 36.2891 18.2949 36.5996 18.5703C36.9102 18.8428 37.0713 19.2192 37.083 19.6997V21.8882C37.083 22.3247 37.1387 22.6719 37.25 22.9297V23H36.3975ZM35.0483 22.3804C35.3032 22.3804 35.5449 22.3145 35.7734 22.1826C36.002 22.0508 36.1675 21.8794 36.27 21.6685V20.6929H35.6328C34.6367 20.6929 34.1387 20.9844 34.1387 21.5674C34.1387 21.8223 34.2236 22.0215 34.3936 22.165C34.5635 22.3086 34.7817 22.3804 35.0483 22.3804ZM35.7998 16.25H36.7842L35.6064 17.542H34.9517L35.7998 16.25ZM41.6929 17.0938V18.2451H42.5806V18.8735H41.6929V21.8223C41.6929 22.0127 41.7324 22.1562 41.8115 22.2529C41.8906 22.3467 42.0254 22.3936 42.2158 22.3936C42.3096 22.3936 42.4385 22.376 42.6025 22.3408V23C42.3887 23.0586 42.1807 23.0879 41.9785 23.0879C41.6152 23.0879 41.3413 22.978 41.1567 22.7583C40.9722 22.5386 40.8799 22.2266 40.8799 21.8223V18.8735H40.0142V18.2451H40.8799V17.0938H41.6929ZM46.4697 22.5298C46.1533 22.9019 45.689 23.0879 45.0767 23.0879C44.5698 23.0879 44.1831 22.9414 43.9165 22.6484C43.6528 22.3525 43.5195 21.916 43.5166 21.3389V18.2451H44.3296V21.3169C44.3296 22.0376 44.6226 22.3979 45.2085 22.3979C45.8296 22.3979 46.2427 22.1665 46.4478 21.7036V18.2451H47.2607V23H46.4873L46.4697 22.5298ZM52.6396 22.4243C52.9297 22.4243 53.1831 22.3364 53.3999 22.1606C53.6167 21.9849 53.7368 21.7651 53.7603 21.5015H54.5293C54.5146 21.7739 54.4209 22.0332 54.248 22.2793C54.0752 22.5254 53.8438 22.7217 53.5537 22.8682C53.2666 23.0146 52.9619 23.0879 52.6396 23.0879C51.9922 23.0879 51.4766 22.8726 51.0928 22.4419C50.7119 22.0083 50.5215 21.4165 50.5215 20.6665V20.5303C50.5215 20.0674 50.6064 19.6558 50.7764 19.2954C50.9463 18.9351 51.1895 18.6553 51.5059 18.4561C51.8252 18.2568 52.2017 18.1572 52.6353 18.1572C53.1685 18.1572 53.6108 18.3169 53.9624 18.6362C54.3169 18.9556 54.5059 19.3701 54.5293 19.8799H53.7603C53.7368 19.5723 53.6196 19.3203 53.4087 19.124C53.2007 18.9248 52.9429 18.8252 52.6353 18.8252C52.2222 18.8252 51.9014 18.9746 51.6729 19.2734C51.4473 19.5693 51.3345 19.9985 51.3345 20.561V20.7148C51.3345 21.2627 51.4473 21.6846 51.6729 21.9805C51.8984 22.2764 52.2207 22.4243 52.6396 22.4243ZM55.228 20.5786C55.228 20.1128 55.3188 19.6938 55.5005 19.3218C55.6851 18.9497 55.9399 18.6626 56.2651 18.4604C56.5933 18.2583 56.9668 18.1572 57.3857 18.1572C58.0332 18.1572 58.5562 18.3813 58.9546 18.8296C59.356 19.2778 59.5566 19.874 59.5566 20.6182V20.6753C59.5566 21.1382 59.4673 21.5542 59.2886 21.9233C59.1128 22.2896 58.8594 22.5752 58.5283 22.7803C58.2002 22.9854 57.8223 23.0879 57.3945 23.0879C56.75 23.0879 56.2271 22.8638 55.8257 22.4155C55.4272 21.9673 55.228 21.374 55.228 20.6357V20.5786ZM56.0454 20.6753C56.0454 21.2026 56.167 21.626 56.4102 21.9453C56.6562 22.2646 56.9844 22.4243 57.3945 22.4243C57.8076 22.4243 58.1357 22.2632 58.3789 21.9409C58.6221 21.6157 58.7437 21.1616 58.7437 20.5786C58.7437 20.0571 58.6191 19.6353 58.3701 19.313C58.124 18.9878 57.7959 18.8252 57.3857 18.8252C56.9844 18.8252 56.6606 18.9849 56.4146 19.3042C56.1685 19.6235 56.0454 20.0806 56.0454 20.6753ZM62.8745 18.9746C62.7515 18.9541 62.6182 18.9438 62.4746 18.9438C61.9414 18.9438 61.5796 19.1709 61.3892 19.625V23H60.5762V18.2451H61.3672L61.3804 18.7944C61.647 18.3696 62.0249 18.1572 62.5142 18.1572C62.6724 18.1572 62.7925 18.1777 62.8745 18.2188V18.9746ZM65.9243 18.9746C65.8013 18.9541 65.668 18.9438 65.5244 18.9438C64.9912 18.9438 64.6294 19.1709 64.439 19.625V23H63.626V18.2451H64.417L64.4302 18.7944C64.6968 18.3696 65.0747 18.1572 65.564 18.1572C65.7222 18.1572 65.8423 18.1777 65.9243 18.2188V18.9746ZM68.561 23.0879C67.9165 23.0879 67.3921 22.877 66.9878 22.4551C66.5835 22.0303 66.3813 21.4634 66.3813 20.7544V20.605C66.3813 20.1333 66.4707 19.7129 66.6494 19.3438C66.8311 18.9717 67.083 18.6816 67.4053 18.4736C67.7305 18.2627 68.082 18.1572 68.46 18.1572C69.0781 18.1572 69.5586 18.3608 69.9014 18.7681C70.2441 19.1753 70.4155 19.7583 70.4155 20.5171V20.8555H67.1943C67.2061 21.3242 67.3423 21.7036 67.603 21.9937C67.8667 22.2808 68.2007 22.4243 68.605 22.4243C68.8921 22.4243 69.1353 22.3657 69.3345 22.2485C69.5337 22.1313 69.708 21.9761 69.8574 21.7827L70.354 22.1694C69.9556 22.7817 69.3579 23.0879 68.561 23.0879ZM68.46 18.8252C68.1318 18.8252 67.8564 18.9453 67.6338 19.1855C67.4111 19.4229 67.2734 19.7568 67.2207 20.1875H69.6025V20.126C69.5791 19.7129 69.4678 19.3936 69.2686 19.168C69.0693 18.9395 68.7998 18.8252 68.46 18.8252ZM71.145 20.5786C71.145 20.1128 71.2358 19.6938 71.4175 19.3218C71.6021 18.9497 71.8569 18.6626 72.1821 18.4604C72.5103 18.2583 72.8838 18.1572 73.3027 18.1572C73.9502 18.1572 74.4731 18.3813 74.8716 18.8296C75.2729 19.2778 75.4736 19.874 75.4736 20.6182V20.6753C75.4736 21.1382 75.3843 21.5542 75.2056 21.9233C75.0298 22.2896 74.7764 22.5752 74.4453 22.7803C74.1172 22.9854 73.7393 23.0879 73.3115 23.0879C72.667 23.0879 72.144 22.8638 71.7427 22.4155C71.3442 21.9673 71.145 21.374 71.145 20.6357V20.5786ZM71.9624 20.6753C71.9624 21.2026 72.084 21.626 72.3271 21.9453C72.5732 22.2646 72.9014 22.4243 73.3115 22.4243C73.7246 22.4243 74.0527 22.2632 74.2959 21.9409C74.5391 21.6157 74.6606 21.1616 74.6606 20.5786C74.6606 20.0571 74.5361 19.6353 74.2871 19.313C74.041 18.9878 73.7129 18.8252 73.3027 18.8252C72.9014 18.8252 72.5776 18.9849 72.3315 19.3042C72.0854 19.6235 71.9624 20.0806 71.9624 20.6753ZM80.6987 23.0879C80.0542 23.0879 79.5298 22.877 79.1255 22.4551C78.7212 22.0303 78.519 21.4634 78.519 20.7544V20.605C78.519 20.1333 78.6084 19.7129 78.7871 19.3438C78.9688 18.9717 79.2207 18.6816 79.543 18.4736C79.8682 18.2627 80.2197 18.1572 80.5977 18.1572C81.2158 18.1572 81.6963 18.3608 82.0391 18.7681C82.3818 19.1753 82.5532 19.7583 82.5532 20.5171V20.8555H79.332C79.3438 21.3242 79.48 21.7036 79.7407 21.9937C80.0044 22.2808 80.3384 22.4243 80.7427 22.4243C81.0298 22.4243 81.2729 22.3657 81.4722 22.2485C81.6714 22.1313 81.8457 21.9761 81.9951 21.7827L82.4917 22.1694C82.0933 22.7817 81.4956 23.0879 80.6987 23.0879ZM80.5977 18.8252C80.2695 18.8252 79.9941 18.9453 79.7715 19.1855C79.5488 19.4229 79.4111 19.7568 79.3584 20.1875H81.7402V20.126C81.7168 19.7129 81.6055 19.3936 81.4062 19.168C81.207 18.9395 80.9375 18.8252 80.5977 18.8252ZM84.3813 23H83.5684V16.25H84.3813V23ZM87.6597 23.0879C87.0151 23.0879 86.4907 22.877 86.0864 22.4551C85.6821 22.0303 85.48 21.4634 85.48 20.7544V20.605C85.48 20.1333 85.5693 19.7129 85.748 19.3438C85.9297 18.9717 86.1816 18.6816 86.5039 18.4736C86.8291 18.2627 87.1807 18.1572 87.5586 18.1572C88.1768 18.1572 88.6572 18.3608 89 18.7681C89.3428 19.1753 89.5142 19.7583 89.5142 20.5171V20.8555H86.293C86.3047 21.3242 86.4409 21.7036 86.7017 21.9937C86.9653 22.2808 87.2993 22.4243 87.7036 22.4243C87.9907 22.4243 88.2339 22.3657 88.4331 22.2485C88.6323 22.1313 88.8066 21.9761 88.9561 21.7827L89.4526 22.1694C89.0542 22.7817 88.4565 23.0879 87.6597 23.0879ZM87.5586 18.8252C87.2305 18.8252 86.9551 18.9453 86.7324 19.1855C86.5098 19.4229 86.3721 19.7568 86.3193 20.1875H88.7012V20.126C88.6777 19.7129 88.5664 19.3936 88.3672 19.168C88.168 18.9395 87.8984 18.8252 87.5586 18.8252ZM92.3662 22.4243C92.6562 22.4243 92.9097 22.3364 93.1265 22.1606C93.3433 21.9849 93.4634 21.7651 93.4868 21.5015H94.2559C94.2412 21.7739 94.1475 22.0332 93.9746 22.2793C93.8018 22.5254 93.5703 22.7217 93.2803 22.8682C92.9932 23.0146 92.6885 23.0879 92.3662 23.0879C91.7188 23.0879 91.2031 22.8726 90.8193 22.4419C90.4385 22.0083 90.248 21.4165 90.248 20.6665V20.5303C90.248 20.0674 90.333 19.6558 90.5029 19.2954C90.6729 18.9351 90.916 18.6553 91.2324 18.4561C91.5518 18.2568 91.9282 18.1572 92.3618 18.1572C92.895 18.1572 93.3374 18.3169 93.689 18.6362C94.0435 18.9556 94.2324 19.3701 94.2559 19.8799H93.4868C93.4634 19.5723 93.3462 19.3203 93.1353 19.124C92.9272 18.9248 92.6694 18.8252 92.3618 18.8252C91.9487 18.8252 91.6279 18.9746 91.3994 19.2734C91.1738 19.5693 91.061 19.9985 91.061 20.561V20.7148C91.061 21.2627 91.1738 21.6846 91.3994 21.9805C91.625 22.2764 91.9473 22.4243 92.3662 22.4243ZM96.2729 17.0938V18.2451H97.1606V18.8735H96.2729V21.8223C96.2729 22.0127 96.3125 22.1562 96.3916 22.2529C96.4707 22.3467 96.6055 22.3936 96.7959 22.3936C96.8896 22.3936 97.0186 22.376 97.1826 22.3408V23C96.9688 23.0586 96.7607 23.0879 96.5586 23.0879C96.1953 23.0879 95.9214 22.978 95.7368 22.7583C95.5522 22.5386 95.46 22.2266 95.46 21.8223V18.8735H94.5942V18.2451H95.46V17.0938H96.2729ZM100.413 18.9746C100.29 18.9541 100.156 18.9438 100.013 18.9438C99.4795 18.9438 99.1177 19.1709 98.9272 19.625V23H98.1143V18.2451H98.9053L98.9185 18.7944C99.1851 18.3696 99.563 18.1572 100.052 18.1572C100.21 18.1572 100.331 18.1777 100.413 18.2188V18.9746ZM100.861 20.5786C100.861 20.1128 100.952 19.6938 101.133 19.3218C101.318 18.9497 101.573 18.6626 101.898 18.4604C102.226 18.2583 102.6 18.1572 103.019 18.1572C103.666 18.1572 104.189 18.3813 104.587 18.8296C104.989 19.2778 105.189 19.874 105.189 20.6182V20.6753C105.189 21.1382 105.1 21.5542 104.921 21.9233C104.746 22.2896 104.492 22.5752 104.161 22.7803C103.833 22.9854 103.455 23.0879 103.027 23.0879C102.383 23.0879 101.86 22.8638 101.458 22.4155C101.06 21.9673 100.861 21.374 100.861 20.6357V20.5786ZM101.678 20.6753C101.678 21.2026 101.8 21.626 102.043 21.9453C102.289 22.2646 102.617 22.4243 103.027 22.4243C103.44 22.4243 103.769 22.2632 104.012 21.9409C104.255 21.6157 104.376 21.1616 104.376 20.5786C104.376 20.0571 104.252 19.6353 104.003 19.313C103.757 18.9878 103.429 18.8252 103.019 18.8252C102.617 18.8252 102.293 18.9849 102.047 19.3042C101.801 19.6235 101.678 20.0806 101.678 20.6753ZM106.978 18.2451L107.004 18.8428C107.368 18.3857 107.842 18.1572 108.428 18.1572C109.433 18.1572 109.94 18.7241 109.949 19.8579V23H109.136V19.8535C109.133 19.5107 109.054 19.2573 108.898 19.0933C108.746 18.9292 108.507 18.8472 108.182 18.8472C107.918 18.8472 107.687 18.9175 107.488 19.0581C107.289 19.1987 107.133 19.3833 107.022 19.6118V23H106.209V18.2451H106.978ZM112.058 23H111.245V18.2451H112.058V23ZM111.179 16.9839C111.179 16.8521 111.219 16.7407 111.298 16.6499C111.38 16.5591 111.5 16.5137 111.658 16.5137C111.816 16.5137 111.937 16.5591 112.019 16.6499C112.101 16.7407 112.142 16.8521 112.142 16.9839C112.142 17.1157 112.101 17.2256 112.019 17.3135C111.937 17.4014 111.816 17.4453 111.658 17.4453C111.5 17.4453 111.38 17.4014 111.298 17.3135C111.219 17.2256 111.179 17.1157 111.179 16.9839ZM115.271 22.4243C115.561 22.4243 115.814 22.3364 116.031 22.1606C116.248 21.9849 116.368 21.7651 116.391 21.5015H117.16C117.146 21.7739 117.052 22.0332 116.879 22.2793C116.706 22.5254 116.475 22.7217 116.185 22.8682C115.897 23.0146 115.593 23.0879 115.271 23.0879C114.623 23.0879 114.107 22.8726 113.724 22.4419C113.343 22.0083 113.152 21.4165 113.152 20.6665V20.5303C113.152 20.0674 113.237 19.6558 113.407 19.2954C113.577 18.9351 113.82 18.6553 114.137 18.4561C114.456 18.2568 114.833 18.1572 115.266 18.1572C115.799 18.1572 116.242 18.3169 116.593 18.6362C116.948 18.9556 117.137 19.3701 117.16 19.8799H116.391C116.368 19.5723 116.25 19.3203 116.04 19.124C115.832 18.9248 115.574 18.8252 115.266 18.8252C114.853 18.8252 114.532 18.9746 114.304 19.2734C114.078 19.5693 113.965 19.9985 113.965 20.561V20.7148C113.965 21.2627 114.078 21.6846 114.304 21.9805C114.529 22.2764 114.852 22.4243 115.271 22.4243ZM117.859 20.5786C117.859 20.1128 117.95 19.6938 118.131 19.3218C118.316 18.9497 118.571 18.6626 118.896 18.4604C119.224 18.2583 119.598 18.1572 120.017 18.1572C120.664 18.1572 121.187 18.3813 121.585 18.8296C121.987 19.2778 122.188 19.874 122.188 20.6182V20.6753C122.188 21.1382 122.098 21.5542 121.919 21.9233C121.744 22.2896 121.49 22.5752 121.159 22.7803C120.831 22.9854 120.453 23.0879 120.025 23.0879C119.381 23.0879 118.858 22.8638 118.457 22.4155C118.058 21.9673 117.859 21.374 117.859 20.6357V20.5786ZM118.676 20.6753C118.676 21.2026 118.798 21.626 119.041 21.9453C119.287 22.2646 119.615 22.4243 120.025 22.4243C120.438 22.4243 120.767 22.2632 121.01 21.9409C121.253 21.6157 121.375 21.1616 121.375 20.5786C121.375 20.0571 121.25 19.6353 121.001 19.313C120.755 18.9878 120.427 18.8252 120.017 18.8252C119.615 18.8252 119.292 18.9849 119.045 19.3042C118.799 19.6235 118.676 20.0806 118.676 20.6753Z" fill="#A0A0A0"/>
</svg>
