<svg width="340" height="40" viewBox="0 0 340 40" fill="none" xmlns="http://www.w3.org/2000/svg">
<rect width="340" height="40" rx="15" fill="#3C2313"/>
<path d="M19.2768 18.2959H17.2202V24H16.3808V18.2959H14.3286V17.6016H19.2768V18.2959ZM21.6323 24.0879C20.9877 24.0879 20.4633 23.877 20.059 23.4551C19.6547 23.0303 19.4526 22.4634 19.4526 21.7544V21.605C19.4526 21.1333 19.5419 20.7129 19.7206 20.3438C19.9023 19.9717 20.1542 19.6816 20.4765 19.4736C20.8017 19.2627 21.1533 19.1572 21.5312 19.1572C22.1494 19.1572 22.6298 19.3608 22.9726 19.7681C23.3154 20.1753 23.4868 20.7583 23.4868 21.5171V21.8555H20.2656C20.2773 22.3242 20.4135 22.7036 20.6743 22.9937C20.9379 23.2808 21.2719 23.4243 21.6762 23.4243C21.9633 23.4243 22.2065 23.3657 22.4057 23.2485C22.6049 23.1313 22.7792 22.9761 22.9286 22.7827L23.4252 23.1694C23.0268 23.7817 22.4291 24.0879 21.6323 24.0879ZM21.5312 19.8252C21.2031 19.8252 20.9277 19.9453 20.705 20.1855C20.4824 20.4229 20.3447 20.7568 20.2919 21.1875H22.6738V21.126C22.6503 20.7129 22.539 20.3936 22.3398 20.168C22.1406 19.9395 21.871 19.8252 21.5312 19.8252ZM25.3149 24H24.5019V17.25H25.3149V24ZM28.5932 24.0879C27.9487 24.0879 27.4243 23.877 27.02 23.4551C26.6157 23.0303 26.4135 22.4634 26.4135 21.7544V21.605C26.4135 21.1333 26.5029 20.7129 26.6816 20.3438C26.8632 19.9717 27.1152 19.6816 27.4374 19.4736C27.7626 19.2627 28.1142 19.1572 28.4921 19.1572C29.1103 19.1572 29.5908 19.3608 29.9335 19.7681C30.2763 20.1753 30.4477 20.7583 30.4477 21.5171V21.8555H27.2265C27.2382 22.3242 27.3745 22.7036 27.6352 22.9937C27.8989 23.2808 28.2328 23.4243 28.6371 23.4243C28.9243 23.4243 29.1674 23.3657 29.3666 23.2485C29.5659 23.1313 29.7402 22.9761 29.8896 22.7827L30.3862 23.1694C29.9877 23.7817 29.3901 24.0879 28.5932 24.0879ZM28.4921 19.8252C28.164 19.8252 27.8886 19.9453 27.666 20.1855C27.4433 20.4229 27.3056 20.7568 27.2529 21.1875H29.6347V21.126C29.6113 20.7129 29.4999 20.3936 29.3007 20.168C29.1015 19.9395 28.832 19.8252 28.4921 19.8252ZM28.8876 17.25H29.872L28.6943 18.542H28.0395L28.8876 17.25ZM31.7924 24V19.8735H31.041V19.2451H31.7924V18.7573C31.7924 18.2476 31.9286 17.8535 32.2011 17.5752C32.4736 17.2969 32.8588 17.1577 33.3569 17.1577C33.5444 17.1577 33.7304 17.1826 33.915 17.2324L33.871 17.8916C33.7333 17.8652 33.5869 17.8521 33.4316 17.8521C33.1679 17.8521 32.9643 17.9297 32.8207 18.085C32.6772 18.2373 32.6054 18.457 32.6054 18.7441V19.2451H33.6205V19.8735H32.6054V24H31.7924ZM34.3061 21.5786C34.3061 21.1128 34.3969 20.6938 34.5786 20.3218C34.7631 19.9497 35.018 19.6626 35.3432 19.4604C35.6713 19.2583 36.0449 19.1572 36.4638 19.1572C37.1113 19.1572 37.6342 19.3813 38.0327 19.8296C38.434 20.2778 38.6347 20.874 38.6347 21.6182V21.6753C38.6347 22.1382 38.5453 22.5542 38.3666 22.9233C38.1909 23.2896 37.9374 23.5752 37.6064 23.7803C37.2783 23.9854 36.9003 24.0879 36.4726 24.0879C35.8281 24.0879 35.3051 23.8638 34.9037 23.4155C34.5053 22.9673 34.3061 22.374 34.3061 21.6357V21.5786ZM35.1235 21.6753C35.1235 22.2026 35.2451 22.626 35.4882 22.9453C35.7343 23.2646 36.0624 23.4243 36.4726 23.4243C36.8857 23.4243 37.2138 23.2632 37.457 22.9409C37.7001 22.6157 37.8217 22.1616 37.8217 21.5786C37.8217 21.0571 37.6972 20.6353 37.4482 20.313C37.2021 19.9878 36.874 19.8252 36.4638 19.8252C36.0624 19.8252 35.7387 19.9849 35.4926 20.3042C35.2465 20.6235 35.1235 21.0806 35.1235 21.6753ZM40.4233 19.2451L40.4496 19.8428C40.8129 19.3857 41.2875 19.1572 41.8735 19.1572C42.8784 19.1572 43.3852 19.7241 43.394 20.8579V24H42.581V20.8535C42.5781 20.5107 42.499 20.2573 42.3437 20.0933C42.1913 19.9292 41.9526 19.8472 41.6274 19.8472C41.3637 19.8472 41.1323 19.9175 40.933 20.0581C40.7338 20.1987 40.5786 20.3833 40.4672 20.6118V24H39.6542V19.2451H40.4233ZM44.4047 21.5786C44.4047 21.1128 44.4955 20.6938 44.6772 20.3218C44.8618 19.9497 45.1166 19.6626 45.4418 19.4604C45.77 19.2583 46.1435 19.1572 46.5624 19.1572C47.2099 19.1572 47.7328 19.3813 48.1313 19.8296C48.5327 20.2778 48.7333 20.874 48.7333 21.6182V21.6753C48.7333 22.1382 48.644 22.5542 48.4653 22.9233C48.2895 23.2896 48.0361 23.5752 47.705 23.7803C47.3769 23.9854 46.999 24.0879 46.5712 24.0879C45.9267 24.0879 45.4037 23.8638 45.0024 23.4155C44.6039 22.9673 44.4047 22.374 44.4047 21.6357V21.5786ZM45.2221 21.6753C45.2221 22.2026 45.3437 22.626 45.5869 22.9453C45.8329 23.2646 46.1611 23.4243 46.5712 23.4243C46.9843 23.4243 47.3124 23.2632 47.5556 22.9409C47.7988 22.6157 47.9203 22.1616 47.9203 21.5786C47.9203 21.0571 47.7958 20.6353 47.5468 20.313C47.3007 19.9878 46.9726 19.8252 46.5624 19.8252C46.1611 19.8252 45.8373 19.9849 45.5912 20.3042C45.3452 20.6235 45.2221 21.0806 45.2221 21.6753Z" fill="white"/>
</svg>
